<svg id="Ebene_1" data-name="Ebene 1" xmlns="http://www.w3.org/2000/svg" viewBox="0 0 143.9 103.73"><defs><style>.cls-1{fill:#2bf900;}</style></defs><title>RushEnemy</title><path class="cls-1" d="M1.05,55.85v-2c5.83-.05,8.75.08,14.07-.07,0-3.93,0-9.49,0-14H28.2V26.66h13V13.77l-.14.14H54.27V26.53H93.34V13.91h12.88l-.14-.14V27h13.31v13.1h12.93V52.86H145V91.59H132.07V66.16H119V91.94H106.09V79.17H41.17V91.93H28V66.16h-13v25.7H1.05v-2m52.7-37.19V40.19H41.44V52.67ZM106,40.15H93.45V52.54H106Z" transform="translate(-1.05 -1.14)"/><path class="cls-1" d="M41.09,104.86,41,91.79h26.1v13.07Z" transform="translate(-1.05 -1.14)"/><path class="cls-1" d="M80.13,104.86V91.79h26.1q0,6.54-.07,13.07Z" transform="translate(-1.05 -1.14)"/><path class="cls-1" d="M41.17,13.77H28.41V1.14H41V13.91Z" transform="translate(-1.05 -1.14)"/><path class="cls-1" d="M106.22,13.91V1.16h12.64V13.77H106.08Z" transform="translate(-1.05 -1.14)"/></svg>