<svg width="30" height="30" viewBox="0 0 30 30" fill="none" xmlns="http://www.w3.org/2000/svg">
<path d="M15 17.3422L6.80228 25.5399C6.49556 25.8466 6.1052 26 5.63118 26C5.15716 26 4.76679 25.8466 4.46008 25.5399C4.15336 25.2332 4 24.8428 4 24.3688C4 23.8948 4.15336 23.5044 4.46008 23.1977L12.6578 15L4.46008 6.80228C4.15336 6.49556 4 6.1052 4 5.63118C4 5.15716 4.15336 4.76679 4.46008 4.46008C4.76679 4.15336 5.15716 4 5.63118 4C6.1052 4 6.49556 4.15336 6.80228 4.46008L15 12.6578L23.1977 4.46008C23.5044 4.15336 23.8948 4 24.3688 4C24.8428 4 25.2332 4.15336 25.5399 4.46008C25.8466 4.76679 26 5.15716 26 5.63118C26 6.1052 25.8466 6.49556 25.5399 6.80228L17.3422 15L25.5399 23.1977C25.8466 23.5044 26 23.8948 26 24.3688C26 24.8428 25.8466 25.2332 25.5399 25.5399C25.2332 25.8466 24.8428 26 24.3688 26C23.8948 26 23.5044 25.8466 23.1977 25.5399L15 17.3422Z" fill="white"/>
</svg>
