<svg width="30" height="30" viewBox="0 0 30 30" fill="none" xmlns="http://www.w3.org/2000/svg">
<circle cx="15" cy="15" r="12" stroke="white"/>
<path d="M15 21C15.34 21 15.6252 20.8848 15.8556 20.6544C16.0852 20.4248 16.2 20.14 16.2 19.8V14.97C16.2 14.63 16.0852 14.35 15.8556 14.13C15.6252 13.91 15.34 13.8 15 13.8C14.66 13.8 14.3752 13.9148 14.1456 14.1444C13.9152 14.3748 13.8 14.66 13.8 15V19.83C13.8 20.17 13.9152 20.45 14.1456 20.67C14.3752 20.89 14.66 21 15 21ZM15 11.4C15.34 11.4 15.6252 11.2848 15.8556 11.0544C16.0852 10.8248 16.2 10.54 16.2 10.2C16.2 9.86 16.0852 9.5748 15.8556 9.3444C15.6252 9.1148 15.34 9 15 9C14.66 9 14.3752 9.1148 14.1456 9.3444C13.9152 9.5748 13.8 9.86 13.8 10.2C13.8 10.54 13.9152 10.8248 14.1456 11.0544C14.3752 11.2848 14.66 11.4 15 11.4ZM15 27C13.34 27 11.78 26.6848 10.32 26.0544C8.86 25.4248 7.59 24.57 6.51 23.49C5.43 22.41 4.5752 21.14 3.9456 19.68C3.3152 18.22 3 16.66 3 15C3 13.34 3.3152 11.78 3.9456 10.32C4.5752 8.86 5.43 7.59 6.51 6.51C7.59 5.43 8.86 4.5748 10.32 3.9444C11.78 3.3148 13.34 3 15 3C16.66 3 18.22 3.3148 19.68 3.9444C21.14 4.5748 22.41 5.43 23.49 6.51C24.57 7.59 25.4248 8.86 26.0544 10.32C26.6848 11.78 27 13.34 27 15C27 16.66 26.6848 18.22 26.0544 19.68C25.4248 21.14 24.57 22.41 23.49 23.49C22.41 24.57 21.14 25.4248 19.68 26.0544C18.22 26.6848 16.66 27 15 27ZM15 24.6C17.66 24.6 19.9252 23.6652 21.7956 21.7956C23.6652 19.9252 24.6 17.66 24.6 15C24.6 12.34 23.6652 10.0748 21.7956 8.2044C19.9252 6.3348 17.66 5.4 15 5.4C12.34 5.4 10.0752 6.3348 8.2056 8.2044C6.3352 10.0748 5.4 12.34 5.4 15C5.4 17.66 6.3352 19.9252 8.2056 21.7956C10.0752 23.6652 12.34 24.6 15 24.6Z" fill="white"/>
</svg>
