<svg width="30" height="30" viewBox="0 0 30 30" fill="none" xmlns="http://www.w3.org/2000/svg">
<path d="M5.27778 23C4.91574 23 4.61248 22.88 4.368 22.64C4.12267 22.4008 4 22.1042 4 21.75C4 21.3958 4.12267 21.0992 4.368 20.86C4.61248 20.62 4.91574 20.5 5.27778 20.5H25.7222C26.0843 20.5 26.3875 20.62 26.632 20.86C26.8773 21.0992 27 21.3958 27 21.75C27 22.1042 26.8773 22.4008 26.632 22.64C26.3875 22.88 26.0843 23 25.7222 23H5.27778ZM5.27778 16.75C4.91574 16.75 4.61248 16.63 4.368 16.39C4.12267 16.1508 4 15.8542 4 15.5C4 15.1458 4.12267 14.8487 4.368 14.6087C4.61248 14.3696 4.91574 14.25 5.27778 14.25H25.7222C26.0843 14.25 26.3875 14.3696 26.632 14.6087C26.8773 14.8487 27 15.1458 27 15.5C27 15.8542 26.8773 16.1508 26.632 16.39C26.3875 16.63 26.0843 16.75 25.7222 16.75H5.27778ZM5.27778 10.5C4.91574 10.5 4.61248 10.3804 4.368 10.1412C4.12267 9.90125 4 9.60417 4 9.25C4 8.89583 4.12267 8.59875 4.368 8.35875C4.61248 8.11958 4.91574 8 5.27778 8H25.7222C26.0843 8 26.3875 8.11958 26.632 8.35875C26.8773 8.59875 27 8.89583 27 9.25C27 9.60417 26.8773 9.90125 26.632 10.1412C26.3875 10.3804 26.0843 10.5 25.7222 10.5H5.27778Z" fill="white"/>
</svg>
