<svg width="30" height="30" viewBox="0 0 30 30" fill="none" xmlns="http://www.w3.org/2000/svg">
<path d="M5.62963 19.9948C5.16791 19.9948 4.7806 19.835 4.46771 19.5153C4.15482 19.1956 3.99892 18.8004 4.00001 18.3297V11.6695C4.00001 11.1977 4.15645 10.802 4.46934 10.4823C4.78223 10.1626 5.16899 10.0033 5.62963 10.0044H10.5185L15.8963 4.50974C16.4123 3.98247 17.0034 3.86425 17.6693 4.15508C18.3353 4.44591 18.6678 4.96652 18.6667 5.71691V24.2823C18.6667 25.0316 18.3337 25.5522 17.6677 25.8442C17.0017 26.1361 16.4113 26.0179 15.8963 25.4895L10.5185 19.9948H5.62963ZM21.9259 21.6599V8.25613C23.1481 8.8389 24.133 9.7408 24.8804 10.9618C25.6279 12.1829 26.0011 13.5288 26 14.9996C26 16.4704 25.6263 17.8025 24.8788 18.9958C24.1314 20.1891 23.1471 21.0771 21.9259 21.6599ZM15.4074 9.75468L11.9037 13.3346H7.25926V16.6647H11.9037L15.4074 20.2446V9.75468Z" fill="white"/>
</svg>
